<svg width="24" height="24" viewBox="0 0 24 24" fill="none" xmlns="http://www.w3.org/2000/svg">
<path d="M11.9997 18.8271L10.8595 17.6872L10.8401 17.6677L10.8195 17.6495C8.57822 15.6672 6.96231 14.2035 5.80335 12.793L5.80316 12.7927C4.44879 11.1454 3.9 9.7556 3.9 8.37512C3.9 5.85844 5.85833 3.9 8.37645 3.9C9.47225 3.9 10.5684 4.3025 11.4285 5.00947L11.9999 5.47905L12.5713 5.00956C13.432 4.30246 14.5282 3.9 15.6236 3.9C18.1417 3.9 20.1 5.85844 20.1 8.37512C20.1 9.7555 19.5513 11.1452 18.1958 12.792L18.1954 12.7924C17.0356 14.2032 15.4202 15.6666 13.1791 17.6492L13.1583 17.6675L13.1388 17.6871L11.9997 18.8271Z" stroke="black" stroke-width="1.8"/>
</svg>
